<?xml version="1.0" standalone="no"?>
<!DOCTYPE svg PUBLIC "-//W3C//DTD SVG 20010904//EN"
 "http://www.w3.org/TR/2001/REC-SVG-20010904/DTD/svg10.dtd">
<svg version="1.0" xmlns="http://www.w3.org/2000/svg"
 width="1200.000000pt" height="1200.000000pt" viewBox="0 0 1200.000000 1200.000000"
 preserveAspectRatio="xMidYMid meet">
<metadata>
Created by potrace 1.11, written by Peter Selinger 2001-2013
</metadata>
<g transform="translate(0.000000,1200.000000) scale(0.100000,-0.100000)"
fill="#000000" stroke="none">
<path d="M8927 9202 c-55 -20 -117 -73 -117 -101 0 -33 34 -49 83 -41 39 8 56
1 57 -21 0 -3 -37 -23 -82 -44 -242 -111 -228 -106 -235 -89 -4 10 5 26 25 45
60 56 50 99 -22 99 -53 0 -134 -38 -169 -80 -25 -30 -26 -34 -13 -54 11 -17
23 -21 69 -20 98 2 83 -19 -61 -87 -174 -83 -170 -82 -181 -60 -8 14 -5 21 13
31 13 7 32 27 42 45 15 29 16 36 4 50 -11 14 -25 16 -66 12 -96 -10 -193 -82
-175 -130 7 -19 15 -22 70 -22 65 0 85 -14 51 -38 -18 -12 -68 -135 -105 -257
-8 -25 -20 -53 -27 -61 -7 -9 -105 -58 -218 -109 -113 -51 -239 -109 -280
-128 -41 -19 -113 -51 -160 -72 -47 -21 -114 -51 -150 -68 -155 -72 -231 -107
-325 -149 -55 -25 -122 -55 -150 -68 -83 -38 -174 -80 -565 -257 -206 -94
-422 -192 -478 -219 -57 -27 -106 -49 -108 -49 -2 0 -41 -17 -86 -39 -46 -21
-204 -94 -353 -161 -148 -67 -299 -136 -335 -152 -98 -45 -144 -67 -390 -178
-124 -56 -272 -124 -329 -151 -57 -27 -106 -49 -108 -49 -3 0 -38 -16 -79 -35
-40 -19 -75 -35 -77 -35 -2 0 -34 20 -71 44 -69 45 -187 90 -271 102 -395 57
-841 -194 -971 -546 -82 -224 -29 -459 134 -600 410 -351 1199 -64 1328 485
15 63 20 73 48 85 17 8 69 31 116 53 75 34 91 38 140 34 60 -5 104 -23 161
-68 64 -50 159 -323 159 -453 -1 -173 -123 -254 -518 -342 -242 -53 -564 -177
-698 -267 -81 -55 -188 -163 -266 -267 -30 -41 -114 -167 -187 -279 -126 -195
-222 -329 -300 -415 -161 -181 -347 -326 -566 -442 -180 -95 -270 -121 -395
-116 -300 12 -603 326 -909 939 -50 100 -91 184 -91 186 0 3 -20 47 -44 99
-55 118 -142 338 -195 492 -156 453 -177 797 -60 1003 59 104 147 168 329 243
237 97 470 158 680 178 84 8 436 8 700 1 343 -10 477 16 726 142 158 79 267
149 420 269 179 140 299 188 437 177 161 -14 334 -147 419 -321 12 -25 26 -46
30 -46 19 0 328 133 328 141 0 20 -71 148 -116 209 -235 320 -579 451 -924
353 -62 -18 -185 -74 -245 -112 -22 -14 -87 -62 -145 -107 -238 -185 -465
-305 -626 -331 -27 -4 -161 -6 -299 -4 -520 7 -703 4 -791 -13 -12 -2 -45 -7
-75 -11 -216 -27 -524 -122 -794 -245 -178 -82 -340 -249 -416 -430 -57 -136
-73 -226 -73 -425 0 -196 12 -293 63 -500 102 -410 361 -1019 617 -1446 221
-369 485 -634 730 -734 38 -15 78 -31 89 -35 106 -43 352 -48 490 -10 193 53
493 218 700 385 195 157 376 363 540 615 165 254 254 387 274 410 59 68 130
134 167 156 120 71 417 176 584 208 14 2 78 18 144 35 210 55 351 126 456 230
116 115 169 237 174 400 6 190 -42 358 -195 689 -22 46 -39 87 -39 91 0 8 63
39 400 194 113 52 489 226 594 276 59 28 110 51 111 51 2 0 65 29 140 65 76
36 139 65 141 65 1 0 56 25 121 56 65 31 136 64 158 74 22 10 74 33 115 53 41
19 98 45 125 57 28 12 91 42 140 65 50 24 185 87 300 140 116 53 237 110 270
125 33 15 94 44 135 63 237 110 498 231 585 272 137 64 143 66 163 55 55 -31
286 -111 307 -106 39 10 39 -20 0 -59 -60 -58 -40 -101 42 -92 105 12 200 97
161 144 -9 11 -26 14 -65 11 -40 -4 -54 -1 -58 10 -3 8 -4 16 -3 18 3 3 160
76 237 110 79 35 95 17 36 -40 -40 -39 -45 -70 -14 -87 66 -35 235 53 227 119
-2 21 -10 28 -33 33 -16 3 -43 2 -59 -3 -28 -7 -45 2 -46 23 0 5 126 67 257
125 49 22 53 23 62 6 8 -14 3 -22 -20 -37 -36 -25 -54 -71 -37 -93 9 -11 26
-13 64 -9 62 6 123 36 157 76 46 55 13 90 -73 78 -32 -4 -39 -2 -43 14 -3 10
-1 19 4 19 5 0 6 82 3 193 -10 321 -9 319 -28 333 -9 6 -38 32 -65 55 -83 76
-222 203 -254 232 -17 15 -36 27 -43 27 -27 0 -21 31 12 64 76 76 20 121 -99
78z"/>
<path d="M7710 7420 c-8 -5 -96 -46 -196 -90 l-181 -81 2 -119 c1 -76 -3 -121
-9 -123 -6 -1 -66 -3 -133 -2 l-123 1 0 -198 0 -197 132 -3 132 -3 2 -445 c1
-491 5 -532 63 -652 67 -138 178 -208 356 -224 39 -3 82 -7 98 -9 15 -1 31 3
35 9 4 6 7 88 7 183 l0 171 -37 12 c-47 14 -82 50 -98 104 -15 47 -22 834 -7
843 4 3 64 5 133 4 l124 0 0 194 c0 179 -1 195 -17 196 -10 0 -68 0 -129 -1
-83 -1 -113 2 -116 12 -2 7 -4 106 -3 221 0 208 -1 217 -35 197z"/>
<path d="M6775 7009 l-200 -87 -3 -56 c-3 -52 -2 -56 20 -57 60 -2 383 3 386
5 1 2 1 66 0 143 l-3 140 -200 -88z"/>
<path d="M6243 6783 l-193 -86 -1 -394 c-1 -216 -2 -396 -3 -400 -27 -136
-115 -220 -234 -224 -63 -3 -150 36 -185 83 -56 72 -59 98 -61 415 -1 161 -5
295 -8 299 -4 4 -29 -4 -55 -16 -26 -12 -82 -37 -123 -55 -41 -18 -109 -48
-151 -68 l-76 -35 3 -268 c1 -214 5 -281 18 -328 49 -176 176 -307 364 -376
100 -36 157 -45 287 -44 311 4 558 183 620 452 19 82 22 1132 3 1131 -7 0
-100 -39 -205 -86z"/>
<path d="M10196 6793 c-1 -1 -28 -3 -61 -4 -88 -3 -219 -35 -290 -69 -124 -61
-207 -180 -229 -329 -7 -52 -10 -251 -10 -577 1 -275 2 -504 3 -510 1 -7 66
-10 204 -10 l202 1 1 440 c1 453 4 488 43 551 31 51 127 88 241 94 3 0 5 92 5
205 0 113 -2 205 -5 206 -11 2 -102 4 -104 2z"/>
<path d="M8668 6734 c-2 -1 -25 -5 -53 -8 -27 -3 -79 -14 -115 -25 -257 -75
-442 -251 -515 -491 -23 -75 -28 -255 -9 -345 61 -285 329 -527 624 -562 130
-16 325 4 337 33 8 21 8 434 0 434 -4 0 -25 -11 -46 -24 -138 -88 -316 -68
-432 46 -123 122 -121 318 5 443 79 79 131 100 246 100 83 -1 102 -4 152 -28
89 -44 154 -136 173 -247 4 -25 8 -207 7 -405 l0 -360 202 0 201 0 2 397 c1
218 -2 411 -7 430 -5 18 -12 48 -15 66 -10 57 -53 152 -102 225 -125 184 -350
306 -590 320 -35 2 -64 3 -65 1z"/>
<path d="M6570 5998 l0 -703 205 0 205 0 0 702 0 703 -205 0 -205 0 0 -702z"/>
<path d="M8689 5153 c-1 -5 -2 -42 -3 -83 l-1 -75 -127 -3 -128 -3 -1 -27 c-1
-33 -1 -354 0 -364 1 -4 58 -9 128 -10 l128 -3 1 -475 c1 -261 4 -491 8 -510
4 -19 9 -48 12 -65 17 -101 63 -206 120 -274 55 -66 192 -108 364 -113 36 -1
36 -3 36 182 0 99 -3 180 -6 181 -54 8 -87 32 -114 85 -20 38 -21 56 -24 512
l-3 472 130 0 130 0 -2 198 -2 197 -125 0 -125 0 -3 93 -3 92 -194 0 c-107 0
-196 -3 -196 -7z"/>
<path d="M5088 5056 c-1 -2 -37 -6 -78 -10 -118 -9 -166 -19 -283 -57 -290
-96 -527 -307 -656 -584 -78 -167 -110 -322 -106 -515 2 -63 8 -137 15 -165 6
-27 14 -60 16 -73 10 -53 75 -213 114 -282 70 -122 97 -158 206 -266 86 -85
176 -150 281 -203 62 -31 185 -76 233 -84 14 -3 43 -8 65 -12 22 -4 49 -9 60
-12 33 -6 257 -5 310 2 93 12 235 54 315 95 114 56 193 112 288 205 l84 80
-139 116 -139 116 -59 -54 c-156 -142 -311 -204 -510 -205 -107 0 -154 6 -243
34 -210 64 -379 215 -472 422 -44 97 -62 180 -65 301 -9 359 180 623 535 745
163 55 311 60 468 15 94 -28 204 -93 307 -182 27 -24 55 -41 61 -39 11 4 246
177 269 198 20 18 -150 167 -287 249 -150 90 -315 143 -483 155 -44 3 -85 7
-92 9 -6 2 -13 2 -15 1z"/>
<path d="M6395 4669 c-185 -17 -389 -112 -506 -236 -134 -141 -190 -308 -184
-548 5 -231 51 -346 195 -495 160 -164 330 -241 530 -241 109 1 193 20 305 69
172 75 277 169 363 323 28 52 52 98 52 101 0 3 -88 5 -196 5 l-196 -1 -42 -39
c-22 -22 -70 -54 -106 -71 -59 -28 -74 -31 -167 -31 -56 0 -105 4 -109 8 -5 4
167 180 380 390 l388 382 -38 50 c-60 78 -113 132 -189 189 -150 113 -307 161
-480 145z m95 -388 c65 -3 57 -14 -155 -226 -151 -150 -210 -204 -218 -196 -6
6 -11 44 -11 84 -1 62 4 82 32 139 36 75 96 134 169 168 47 22 116 39 143 34
8 -1 26 -3 40 -3z"/>
<path d="M7715 4668 c-95 -21 -124 -31 -193 -65 -158 -79 -270 -229 -296 -398
-5 -30 -10 -898 -7 -1022 1 -21 3 -21 198 -20 l198 2 1 435 c0 301 4 448 12
476 59 206 324 236 421 46 11 -21 23 -56 27 -77 4 -22 8 -229 8 -460 l1 -420
198 -1 198 -2 -1 503 c-1 400 -4 516 -16 565 -48 209 -210 367 -434 425 -73
20 -254 27 -315 13z"/>
<path d="M10037 4674 c-1 -1 -27 -4 -57 -7 -168 -16 -343 -96 -476 -218 -36
-32 -124 -149 -124 -163 0 -4 -9 -25 -19 -49 -87 -193 -85 -491 5 -670 97
-190 316 -362 519 -405 78 -16 230 -12 315 9 41 11 126 44 188 75 160 80 240
160 325 330 l35 71 -196 0 -197 0 -39 -39 c-22 -21 -69 -53 -105 -71 -61 -30
-73 -32 -167 -32 -56 0 -106 4 -111 8 -4 5 166 181 379 390 l388 382 -34 45
c-135 180 -318 302 -490 330 -66 10 -135 17 -139 14z m82 -402 c18 -6 -2 -30
-183 -212 -113 -113 -209 -206 -215 -208 -13 -4 -24 94 -17 142 9 54 51 134
94 179 88 90 228 134 321 99z"/>
<path d="M11467 4654 c-1 -1 -31 -5 -67 -8 -220 -23 -389 -116 -459 -253 -54
-108 -55 -116 -56 -696 l-1 -537 193 0 c106 1 195 5 198 9 2 5 5 202 5 438 1
265 5 445 11 469 24 90 98 149 196 158 26 2 53 4 59 5 11 1 16 410 5 412 -13
2 -82 4 -84 3z"/>
<path d="M11815 4642 c-129 -22 -191 -141 -132 -252 63 -119 238 -115 297 6
35 71 19 151 -41 205 -31 28 -90 47 -124 41z m117 -59 c75 -72 54 -211 -38
-249 -107 -45 -214 26 -214 141 0 44 5 57 33 89 60 69 158 77 219 19z"/>
<path d="M11762 4473 c3 -102 5 -116 21 -119 17 -2 21 11 17 69 -3 42 25 33
48 -17 19 -39 47 -64 60 -52 3 3 -5 28 -17 57 -20 46 -21 52 -7 68 9 10 16 32
16 49 0 41 -31 62 -93 62 l-48 0 3 -117z m101 63 c8 -19 -6 -35 -33 -38 -25
-3 -37 19 -27 46 7 16 54 9 60 -8z"/>
</g>
</svg>
